<?xml version="1.0" encoding="iso-8859-1"?>
<!-- Generator: Adobe Illustrator 19.0.0, SVG Export Plug-In . SVG Version: 6.00 Build 0)  -->
<svg version="1.1" id="Capa_1" xmlns="http://www.w3.org/2000/svg" xmlns:xlink="http://www.w3.org/1999/xlink" x="0px" y="0px"
	 viewBox="0 0 512 512" style="enable-background:new 0 0 512 512;" xml:space="preserve">
<path style="fill:#F0CB4D;" d="M256,128.275c-103.846,0-188.03,84.184-188.03,188.03S152.154,504.336,256,504.336
	s188.03-84.184,188.03-188.031C444.03,212.459,359.846,128.275,256,128.275z M256,462.948c-80.989,0-146.643-65.654-146.643-146.643
	S175.011,169.662,256,169.662s146.643,65.654,146.643,146.643S336.989,462.948,256,462.948z"/>
<path style="fill:#E0B744;" d="M256,128.275c-9.127,0-18.097,0.664-26.876,1.921c53.584,7.67,99.88,37.919,128.926,80.814
	c27.497,26.654,44.593,63.976,44.593,105.296s-17.096,78.641-44.593,105.296c-29.046,42.895-75.343,73.145-128.927,80.815
	c8.779,1.257,17.75,1.92,26.876,1.92c103.846,0,188.03-84.184,188.03-188.031C444.03,212.459,359.846,128.275,256,128.275z"/>
<polygon style="fill:#37C4B3;" points="256,169.541 147.97,69.126 189.234,7.674 322.766,7.674 364.03,69.126 "/>
<polygon style="fill:#B9F5ED;" points="147.97,69.126 189.234,7.674 322.766,7.674 364.03,69.126 "/>
<g>
	<polygon style="fill:#53E7D3;" points="256,169.541 222.703,69.126 289.467,69.126 	"/>
	<polygon style="fill:#53E7D3;" points="222.687,69.138 189.321,7.664 256.054,7.664 	"/>
	<polygon style="fill:#53E7D3;" points="289.398,69.138 256.031,7.664 322.764,7.664 	"/>
</g>
<path d="M140.344,69.844c0.028,0.299,0.071,0.597,0.134,0.891c0.01,0.046,0.024,0.092,0.035,0.138
	c0.063,0.269,0.141,0.535,0.233,0.797c0.018,0.051,0.033,0.102,0.053,0.152c0.11,0.292,0.238,0.577,0.384,0.856
	c0.009,0.017,0.014,0.036,0.024,0.053c0.016,0.029,0.036,0.054,0.052,0.084c0.139,0.253,0.292,0.499,0.461,0.738
	c0.022,0.031,0.042,0.064,0.064,0.095c0.179,0.244,0.375,0.478,0.586,0.703c0.052,0.055,0.105,0.108,0.159,0.161
	c0.075,0.076,0.145,0.154,0.223,0.227l95.037,88.339c-76.533,9.04-136.096,74.304-136.096,153.228
	c0,85.086,69.222,154.308,154.308,154.308s154.308-69.222,154.308-154.308c0-78.924-59.563-144.188-136.096-153.228l95.037-88.339
	c0.078-0.073,0.148-0.151,0.223-0.227c0.053-0.054,0.107-0.106,0.159-0.161c0.21-0.225,0.407-0.459,0.586-0.703
	c0.022-0.031,0.042-0.064,0.064-0.095c0.169-0.239,0.322-0.485,0.461-0.738c0.016-0.029,0.037-0.054,0.052-0.084
	c0.009-0.017,0.015-0.036,0.024-0.053c0.146-0.278,0.274-0.563,0.383-0.855c0.019-0.051,0.035-0.103,0.053-0.154
	c0.092-0.261,0.17-0.527,0.233-0.796c0.011-0.046,0.025-0.092,0.035-0.138c0.063-0.294,0.106-0.591,0.134-0.89
	c0.006-0.068,0.01-0.135,0.015-0.203c0.019-0.282,0.026-0.565,0.013-0.848c-0.001-0.025,0-0.049-0.001-0.074
	c-0.016-0.305-0.055-0.609-0.108-0.912c-0.011-0.062-0.023-0.124-0.035-0.186c-0.12-0.601-0.313-1.191-0.581-1.76
	c-0.031-0.065-0.062-0.129-0.095-0.193c-0.141-0.278-0.293-0.552-0.47-0.816L329.129,3.402c-0.044-0.065-0.097-0.122-0.142-0.186
	c-0.116-0.162-0.234-0.32-0.361-0.471c-0.074-0.088-0.152-0.171-0.23-0.255c-0.143-0.155-0.288-0.307-0.442-0.45
	c-0.071-0.065-0.145-0.125-0.218-0.187c-0.172-0.147-0.346-0.29-0.529-0.421c-0.06-0.043-0.124-0.081-0.186-0.122
	c-0.205-0.137-0.412-0.269-0.628-0.385c-0.039-0.021-0.079-0.037-0.118-0.057C325.206,0.314,324.009,0,322.764,0h-66.71h-0.022
	h-66.711c-0.34,0-0.677,0.023-1.01,0.067c-2.197,0.266-4.189,1.472-5.44,3.335l-41.264,61.451c-0.178,0.264-0.33,0.539-0.471,0.817
	c-0.032,0.064-0.064,0.127-0.094,0.192c-0.268,0.569-0.462,1.16-0.582,1.761c-0.012,0.061-0.024,0.122-0.035,0.184
	c-0.053,0.303-0.092,0.607-0.108,0.913c-0.001,0.024,0,0.049-0.001,0.074c-0.012,0.284-0.006,0.567,0.013,0.849
	C140.334,69.71,140.338,69.776,140.344,69.844z M167.473,76.79h49.697l22.142,66.776L167.473,76.79z M233.32,76.79h45.515
	l-22.815,68.457L233.32,76.79z M394.979,316.305c0,76.633-62.346,138.979-138.979,138.979s-138.979-62.346-138.979-138.979
	S179.367,177.326,256,177.326S394.979,239.672,394.979,316.305z M272.757,143.501l22.234-66.712h49.536L272.757,143.501z
	 M323.458,22.453l26.194,39.008h-47.367L323.458,22.453z M309.878,15.339l-20.48,37.733l-20.48-37.733
	C268.918,15.339,309.878,15.339,309.878,15.339z M256.043,23.752l20.467,37.709h-40.935L256.043,23.752z M243.168,15.339
	l-20.48,37.734l-20.48-37.734C202.208,15.339,243.168,15.339,243.168,15.339z M188.589,22.383L209.8,61.461h-47.451L188.589,22.383z
	"/>
<path d="M332.818,136.281c-3.894-1.663-8.397,0.147-10.059,4.038c-1.663,3.893,0.145,8.396,4.038,10.059
	c66.56,28.434,109.569,93.564,109.569,165.928c0,99.454-80.912,180.366-180.366,180.366S75.634,415.759,75.634,316.305
	c0-72.5,43.121-137.679,109.855-166.049c3.895-1.657,5.71-6.156,4.055-10.052c-1.658-3.897-6.158-5.711-10.052-4.055
	C107.088,166.931,60.305,237.646,60.305,316.305C60.305,424.212,148.093,512,256,512s195.695-87.788,195.695-195.695
	C451.695,237.793,405.033,167.13,332.818,136.281z"/>
<g>
</g>
<g>
</g>
<g>
</g>
<g>
</g>
<g>
</g>
<g>
</g>
<g>
</g>
<g>
</g>
<g>
</g>
<g>
</g>
<g>
</g>
<g>
</g>
<g>
</g>
<g>
</g>
<g>
</g>
</svg>
